<svg xmlns="http://www.w3.org/2000/svg" viewBox="0 0 201 201">
  <defs>
    <style>
      .cls-1 {
        fill: #70c1b3;
      }

      .cls-2 {
        fill: #afb9d2;
      }

      .cls-3 {
        fill: #c7cfe2;
      }

      .cls-4 {
        fill: #8f96ac;
      }

      .cls-5 {
        fill: #9fa7bf;
      }

      .cls-6 {
        fill: #707487;
      }
    </style>
  </defs>
  <g id="Group_215" data-name="Group 215" transform="translate(-3609 -3045)">
    <circle id="Ellipse_11" data-name="Ellipse 11" class="cls-1" cx="100.5" cy="100.5" r="100.5" transform="translate(3609 3045)"/>
    <g id="organization" transform="translate(3655.029 3079.154)">
      <g id="Group_132" data-name="Group 132" transform="translate(77.041 11.33)">
        <path id="Path_260" data-name="Path 260" class="cls-2" d="M346.541,44.138h0a2.266,2.266,0,0,0-2.266,2.266V71.329h4.532V46.4A2.266,2.266,0,0,0,346.541,44.138Z" transform="translate(-344.275 -44.138)"/>
        <path id="Path_261" data-name="Path 261" class="cls-2" d="M381.852,79.448h0a2.266,2.266,0,0,0-2.266,2.266v24.925h4.532V81.714A2.266,2.266,0,0,0,381.852,79.448Z" transform="translate(-370.522 -70.384)"/>
      </g>
      <path id="Path_262" data-name="Path 262" class="cls-3" d="M326.621,132.414h29.457a2.266,2.266,0,0,1,2.266,2.266v92.9H326.621Z" transform="translate(-254.112 -98.425)"/>
      <g id="Group_133" data-name="Group 133" transform="translate(70.243 111.03)">
        <rect id="Rectangle_1101" data-name="Rectangle 1101" class="cls-2" width="31.723" height="9.064" transform="translate(2.266 9.064)"/>
        <rect id="Rectangle_1102" data-name="Rectangle 1102" class="cls-2" width="33.989" height="4.532"/>
      </g>
      <g id="Group_134" data-name="Group 134" transform="translate(77.041 111.03)">
        <rect id="Rectangle_1103" data-name="Rectangle 1103" class="cls-4" width="4.532" height="4.532" transform="translate(18.127)"/>
        <rect id="Rectangle_1104" data-name="Rectangle 1104" class="cls-4" width="4.532" height="4.532"/>
        <rect id="Rectangle_1105" data-name="Rectangle 1105" class="cls-4" width="4.532" height="4.532" transform="translate(9.064)"/>
      </g>
      <rect id="Rectangle_1106" data-name="Rectangle 1106" class="cls-2" width="33.989" height="4.532" transform="translate(70.243 101.966)"/>
      <g id="Group_135" data-name="Group 135" transform="translate(77.041 101.966)">
        <rect id="Rectangle_1107" data-name="Rectangle 1107" class="cls-4" width="4.532" height="4.532" transform="translate(18.127)"/>
        <rect id="Rectangle_1108" data-name="Rectangle 1108" class="cls-4" width="4.532" height="4.532"/>
        <rect id="Rectangle_1109" data-name="Rectangle 1109" class="cls-4" width="4.532" height="4.532" transform="translate(9.064)"/>
      </g>
      <rect id="Rectangle_1110" data-name="Rectangle 1110" class="cls-2" width="33.989" height="4.532" transform="translate(70.243 92.903)"/>
      <g id="Group_136" data-name="Group 136" transform="translate(77.041 92.903)">
        <rect id="Rectangle_1111" data-name="Rectangle 1111" class="cls-4" width="4.532" height="4.532" transform="translate(18.127)"/>
        <rect id="Rectangle_1112" data-name="Rectangle 1112" class="cls-4" width="4.532" height="4.532"/>
        <rect id="Rectangle_1113" data-name="Rectangle 1113" class="cls-4" width="4.532" height="4.532" transform="translate(9.064)"/>
      </g>
      <rect id="Rectangle_1114" data-name="Rectangle 1114" class="cls-2" width="33.989" height="4.532" transform="translate(70.243 83.839)"/>
      <g id="Group_137" data-name="Group 137" transform="translate(77.041 83.839)">
        <rect id="Rectangle_1115" data-name="Rectangle 1115" class="cls-4" width="4.532" height="4.532" transform="translate(18.127)"/>
        <rect id="Rectangle_1116" data-name="Rectangle 1116" class="cls-4" width="4.532" height="4.532"/>
        <rect id="Rectangle_1117" data-name="Rectangle 1117" class="cls-4" width="4.532" height="4.532" transform="translate(9.064)"/>
      </g>
      <rect id="Rectangle_1118" data-name="Rectangle 1118" class="cls-2" width="33.989" height="4.532" transform="translate(70.243 74.775)"/>
      <g id="Group_138" data-name="Group 138" transform="translate(77.041 74.775)">
        <rect id="Rectangle_1119" data-name="Rectangle 1119" class="cls-4" width="4.532" height="4.532" transform="translate(18.127)"/>
        <rect id="Rectangle_1120" data-name="Rectangle 1120" class="cls-4" width="4.532" height="4.532"/>
        <rect id="Rectangle_1121" data-name="Rectangle 1121" class="cls-4" width="4.532" height="4.532" transform="translate(9.064)"/>
      </g>
      <rect id="Rectangle_1122" data-name="Rectangle 1122" class="cls-2" width="33.989" height="4.532" transform="translate(70.243 65.712)"/>
      <g id="Group_139" data-name="Group 139" transform="translate(77.041 65.712)">
        <rect id="Rectangle_1123" data-name="Rectangle 1123" class="cls-4" width="4.532" height="4.532" transform="translate(18.127)"/>
        <rect id="Rectangle_1124" data-name="Rectangle 1124" class="cls-4" width="4.532" height="4.532"/>
        <rect id="Rectangle_1125" data-name="Rectangle 1125" class="cls-4" width="4.532" height="4.532" transform="translate(9.064)"/>
      </g>
      <rect id="Rectangle_1126" data-name="Rectangle 1126" class="cls-2" width="33.989" height="4.532" transform="translate(70.243 56.648)"/>
      <g id="Group_140" data-name="Group 140" transform="translate(77.041 56.648)">
        <rect id="Rectangle_1127" data-name="Rectangle 1127" class="cls-4" width="4.532" height="4.532" transform="translate(18.127)"/>
        <rect id="Rectangle_1128" data-name="Rectangle 1128" class="cls-4" width="4.532" height="4.532"/>
        <rect id="Rectangle_1129" data-name="Rectangle 1129" class="cls-4" width="4.532" height="4.532" transform="translate(9.064)"/>
      </g>
      <rect id="Rectangle_1130" data-name="Rectangle 1130" class="cls-2" width="33.989" height="4.532" transform="translate(70.243 47.584)"/>
      <g id="Group_141" data-name="Group 141" transform="translate(77.041 47.584)">
        <rect id="Rectangle_1131" data-name="Rectangle 1131" class="cls-4" width="4.532" height="4.532" transform="translate(18.127)"/>
        <rect id="Rectangle_1132" data-name="Rectangle 1132" class="cls-4" width="4.532" height="4.532"/>
        <rect id="Rectangle_1133" data-name="Rectangle 1133" class="cls-4" width="4.532" height="4.532" transform="translate(9.064)"/>
      </g>
      <rect id="Rectangle_1134" data-name="Rectangle 1134" class="cls-2" width="33.989" height="4.532" transform="translate(70.243 38.521)"/>
      <g id="Group_142" data-name="Group 142" transform="translate(77.041 38.521)">
        <rect id="Rectangle_1135" data-name="Rectangle 1135" class="cls-4" width="4.532" height="4.532" transform="translate(18.127)"/>
        <rect id="Rectangle_1136" data-name="Rectangle 1136" class="cls-4" width="4.532" height="4.532"/>
        <rect id="Rectangle_1137" data-name="Rectangle 1137" class="cls-4" width="4.532" height="4.532" transform="translate(9.064)"/>
      </g>
      <path id="Path_263" data-name="Path 263" class="cls-2" d="M129.771,129.157H61.793V2.266A2.266,2.266,0,0,1,64.059,0H127.5a2.266,2.266,0,0,1,2.266,2.266Z" transform="translate(-57.261 0)"/>
      <path id="Path_264" data-name="Path 264" class="cls-4" d="M81.714,139.307h0a2.266,2.266,0,0,1-2.266-2.266V46.4a2.266,2.266,0,0,1,2.266-2.266h0A2.266,2.266,0,0,1,83.98,46.4v90.637A2.266,2.266,0,0,1,81.714,139.307Z" transform="translate(-70.384 -32.808)"/>
      <rect id="Rectangle_1138" data-name="Rectangle 1138" class="cls-5" width="67.978" height="18.127" transform="translate(4.532 111.03)"/>
      <path id="Path_265" data-name="Path 265" class="cls-6" d="M83.979,461.536v-9.064a2.266,2.266,0,0,0-4.532,0v9.064Z" transform="translate(-70.384 -334.645)"/>
      <path id="Path_266" data-name="Path 266" class="cls-4" d="M117.024,139.307h0a2.266,2.266,0,0,1-2.266-2.266V46.4a2.266,2.266,0,0,1,2.266-2.266h0A2.266,2.266,0,0,1,119.29,46.4v90.637A2.266,2.266,0,0,1,117.024,139.307Z" transform="translate(-96.631 -32.808)"/>
      <path id="Path_267" data-name="Path 267" class="cls-6" d="M119.29,461.536v-9.064a2.266,2.266,0,0,0-4.532,0v9.064Z" transform="translate(-96.631 -334.645)"/>
      <path id="Path_268" data-name="Path 268" class="cls-4" d="M152.335,139.307h0a2.266,2.266,0,0,1-2.266-2.266V46.4a2.266,2.266,0,0,1,2.266-2.266h0A2.266,2.266,0,0,1,154.6,46.4v90.637A2.266,2.266,0,0,1,152.335,139.307Z" transform="translate(-122.878 -32.808)"/>
      <path id="Path_269" data-name="Path 269" class="cls-6" d="M154.6,461.536v-9.064a2.266,2.266,0,0,0-4.532,0v9.064Z" transform="translate(-122.877 -334.645)"/>
      <path id="Path_270" data-name="Path 270" class="cls-4" d="M187.645,139.307h0a2.266,2.266,0,0,1-2.266-2.266V46.4a2.266,2.266,0,0,1,2.266-2.266h0a2.266,2.266,0,0,1,2.266,2.266v90.637A2.266,2.266,0,0,1,187.645,139.307Z" transform="translate(-149.124 -32.808)"/>
      <path id="Path_271" data-name="Path 271" class="cls-6" d="M189.91,461.536v-9.064a2.266,2.266,0,0,0-4.532,0v9.064Z" transform="translate(-149.124 -334.645)"/>
      <path id="Path_272" data-name="Path 272" class="cls-4" d="M222.955,139.307h0a2.266,2.266,0,0,1-2.266-2.266V46.4a2.266,2.266,0,0,1,2.266-2.266h0a2.266,2.266,0,0,1,2.266,2.266v90.637A2.266,2.266,0,0,1,222.955,139.307Z" transform="translate(-175.371 -32.808)"/>
      <path id="Path_273" data-name="Path 273" class="cls-6" d="M225.221,461.536v-9.064a2.266,2.266,0,0,0-4.532,0v9.064Z" transform="translate(-175.371 -334.645)"/>
      <path id="Path_274" data-name="Path 274" class="cls-4" d="M258.266,139.307h0A2.266,2.266,0,0,1,256,137.041V46.4a2.266,2.266,0,0,1,2.266-2.266h0a2.266,2.266,0,0,1,2.266,2.266v90.637A2.267,2.267,0,0,1,258.266,139.307Z" transform="translate(-201.618 -32.808)"/>
      <path id="Path_275" data-name="Path 275" class="cls-6" d="M260.532,461.536v-9.064a2.266,2.266,0,0,0-4.532,0v9.064h4.532Z" transform="translate(-201.618 -334.645)"/>
      <path id="Path_276" data-name="Path 276" class="cls-4" d="M293.576,139.307h0a2.266,2.266,0,0,1-2.266-2.266V46.4a2.266,2.266,0,0,1,2.266-2.266h0a2.266,2.266,0,0,1,2.266,2.266v90.637A2.266,2.266,0,0,1,293.576,139.307Z" transform="translate(-227.864 -32.808)"/>
      <g id="Group_143" data-name="Group 143" transform="translate(9.064 15.861)">
        <path id="Path_277" data-name="Path 277" class="cls-6" d="M295.842,461.536v-9.064a2.266,2.266,0,0,0-4.532,0v9.064Z" transform="translate(-236.928 -350.507)"/>
        <rect id="Rectangle_1139" data-name="Rectangle 1139" class="cls-6" width="4.532" height="4.532" transform="translate(0 81.573)"/>
        <rect id="Rectangle_1140" data-name="Rectangle 1140" class="cls-6" width="4.532" height="4.532" transform="translate(9.064 81.573)"/>
        <rect id="Rectangle_1141" data-name="Rectangle 1141" class="cls-6" width="4.532" height="4.532" transform="translate(18.127 81.573)"/>
        <rect id="Rectangle_1142" data-name="Rectangle 1142" class="cls-6" width="4.532" height="4.532" transform="translate(27.191 81.573)"/>
        <rect id="Rectangle_1143" data-name="Rectangle 1143" class="cls-6" width="4.532" height="4.532" transform="translate(36.255 81.573)"/>
        <rect id="Rectangle_1144" data-name="Rectangle 1144" class="cls-6" width="4.532" height="4.532" transform="translate(45.318 81.573)"/>
        <rect id="Rectangle_1145" data-name="Rectangle 1145" class="cls-6" width="4.532" height="4.532" transform="translate(54.382 81.573)"/>
        <rect id="Rectangle_1146" data-name="Rectangle 1146" class="cls-6" width="4.532" height="4.532" transform="translate(0 67.978)"/>
        <rect id="Rectangle_1147" data-name="Rectangle 1147" class="cls-6" width="4.532" height="4.532" transform="translate(9.064 67.978)"/>
        <rect id="Rectangle_1148" data-name="Rectangle 1148" class="cls-6" width="4.532" height="4.532" transform="translate(18.127 67.978)"/>
        <rect id="Rectangle_1149" data-name="Rectangle 1149" class="cls-6" width="4.532" height="4.532" transform="translate(27.191 67.978)"/>
        <rect id="Rectangle_1150" data-name="Rectangle 1150" class="cls-6" width="4.532" height="4.532" transform="translate(36.255 67.978)"/>
        <rect id="Rectangle_1151" data-name="Rectangle 1151" class="cls-6" width="4.532" height="4.532" transform="translate(45.318 67.978)"/>
        <rect id="Rectangle_1152" data-name="Rectangle 1152" class="cls-6" width="4.532" height="4.532" transform="translate(54.382 67.978)"/>
        <rect id="Rectangle_1153" data-name="Rectangle 1153" class="cls-6" width="4.532" height="4.532" transform="translate(0 54.382)"/>
        <rect id="Rectangle_1154" data-name="Rectangle 1154" class="cls-6" width="4.532" height="4.532" transform="translate(9.064 54.382)"/>
        <rect id="Rectangle_1155" data-name="Rectangle 1155" class="cls-6" width="4.532" height="4.532" transform="translate(18.127 54.382)"/>
        <rect id="Rectangle_1156" data-name="Rectangle 1156" class="cls-6" width="4.532" height="4.532" transform="translate(27.191 54.382)"/>
        <rect id="Rectangle_1157" data-name="Rectangle 1157" class="cls-6" width="4.532" height="4.532" transform="translate(36.255 54.382)"/>
        <rect id="Rectangle_1158" data-name="Rectangle 1158" class="cls-6" width="4.532" height="4.532" transform="translate(45.318 54.382)"/>
        <rect id="Rectangle_1159" data-name="Rectangle 1159" class="cls-6" width="4.532" height="4.532" transform="translate(54.382 54.382)"/>
        <rect id="Rectangle_1160" data-name="Rectangle 1160" class="cls-6" width="4.532" height="4.532" transform="translate(0 40.787)"/>
        <rect id="Rectangle_1161" data-name="Rectangle 1161" class="cls-6" width="4.532" height="4.532" transform="translate(9.064 40.787)"/>
        <rect id="Rectangle_1162" data-name="Rectangle 1162" class="cls-6" width="4.532" height="4.532" transform="translate(18.127 40.787)"/>
        <rect id="Rectangle_1163" data-name="Rectangle 1163" class="cls-6" width="4.532" height="4.532" transform="translate(27.191 40.787)"/>
        <rect id="Rectangle_1164" data-name="Rectangle 1164" class="cls-6" width="4.532" height="4.532" transform="translate(36.255 40.787)"/>
        <rect id="Rectangle_1165" data-name="Rectangle 1165" class="cls-6" width="4.532" height="4.532" transform="translate(45.318 40.787)"/>
        <rect id="Rectangle_1166" data-name="Rectangle 1166" class="cls-6" width="4.532" height="4.532" transform="translate(54.382 40.787)"/>
        <rect id="Rectangle_1167" data-name="Rectangle 1167" class="cls-6" width="4.532" height="4.532" transform="translate(0 27.191)"/>
        <rect id="Rectangle_1168" data-name="Rectangle 1168" class="cls-6" width="4.532" height="4.532" transform="translate(9.064 27.191)"/>
        <rect id="Rectangle_1169" data-name="Rectangle 1169" class="cls-6" width="4.532" height="4.532" transform="translate(18.127 27.191)"/>
        <rect id="Rectangle_1170" data-name="Rectangle 1170" class="cls-6" width="4.532" height="4.532" transform="translate(27.191 27.191)"/>
        <rect id="Rectangle_1171" data-name="Rectangle 1171" class="cls-6" width="4.532" height="4.532" transform="translate(36.255 27.191)"/>
        <rect id="Rectangle_1172" data-name="Rectangle 1172" class="cls-6" width="4.532" height="4.532" transform="translate(45.318 27.191)"/>
        <rect id="Rectangle_1173" data-name="Rectangle 1173" class="cls-6" width="4.532" height="4.532" transform="translate(54.382 27.191)"/>
        <rect id="Rectangle_1174" data-name="Rectangle 1174" class="cls-6" width="4.532" height="4.532" transform="translate(0 13.596)"/>
        <rect id="Rectangle_1175" data-name="Rectangle 1175" class="cls-6" width="4.532" height="4.532" transform="translate(9.064 13.596)"/>
        <rect id="Rectangle_1176" data-name="Rectangle 1176" class="cls-6" width="4.532" height="4.532" transform="translate(18.127 13.596)"/>
        <rect id="Rectangle_1177" data-name="Rectangle 1177" class="cls-6" width="4.532" height="4.532" transform="translate(27.191 13.596)"/>
        <rect id="Rectangle_1178" data-name="Rectangle 1178" class="cls-6" width="4.532" height="4.532" transform="translate(36.255 13.596)"/>
        <rect id="Rectangle_1179" data-name="Rectangle 1179" class="cls-6" width="4.532" height="4.532" transform="translate(45.318 13.596)"/>
        <rect id="Rectangle_1180" data-name="Rectangle 1180" class="cls-6" width="4.532" height="4.532" transform="translate(54.382 13.596)"/>
        <rect id="Rectangle_1181" data-name="Rectangle 1181" class="cls-6" width="4.532" height="4.532" transform="translate(0)"/>
        <rect id="Rectangle_1182" data-name="Rectangle 1182" class="cls-6" width="4.532" height="4.532" transform="translate(9.064)"/>
        <rect id="Rectangle_1183" data-name="Rectangle 1183" class="cls-6" width="4.532" height="4.532" transform="translate(18.127)"/>
        <rect id="Rectangle_1184" data-name="Rectangle 1184" class="cls-6" width="4.532" height="4.532" transform="translate(27.191)"/>
        <rect id="Rectangle_1185" data-name="Rectangle 1185" class="cls-6" width="4.532" height="4.532" transform="translate(36.255)"/>
        <rect id="Rectangle_1186" data-name="Rectangle 1186" class="cls-6" width="4.532" height="4.532" transform="translate(45.318)"/>
        <rect id="Rectangle_1187" data-name="Rectangle 1187" class="cls-6" width="4.532" height="4.532" transform="translate(54.382)"/>
      </g>
      <g id="Group_144" data-name="Group 144" transform="translate(0)">
        <path id="Path_278" data-name="Path 278" class="cls-4" d="M129.771,6.8H61.793V2.266A2.266,2.266,0,0,1,64.059,0H127.5a2.266,2.266,0,0,1,2.266,2.266Z" transform="translate(-57.261 0)"/>
        <path id="Path_279" data-name="Path 279" class="cls-4" d="M150.636,498.876H46.4a2.266,2.266,0,0,1-2.266-2.266h0a2.266,2.266,0,0,1,2.266-2.266H150.636a2.266,2.266,0,0,1,2.266,2.266h0A2.266,2.266,0,0,1,150.636,498.876Z" transform="translate(-44.138 -367.453)"/>
      </g>
    </g>
  </g>
</svg>
