<svg xmlns="http://www.w3.org/2000/svg" viewBox="0 0 201 201">
  <defs>
    <style>
      .cls-1 {
        fill: #70c1b3;
      }

      .cls-2 {
        fill: #d9d8da;
      }

      .cls-3 {
        fill: #6598cb;
      }

      .cls-4 {
        fill: #4982aa;
      }

      .cls-5 {
        fill: #694b4b;
      }

      .cls-6 {
        fill: #563b3b;
      }

      .cls-7 {
        fill: #fbcb99;
      }

      .cls-8 {
        fill: #edba89;
      }
    </style>
  </defs>
  <g id="Group_217" data-name="Group 217" transform="translate(-1998 -4633)">
    <circle id="Ellipse_11" data-name="Ellipse 11" class="cls-1" cx="100.5" cy="100.5" r="100.5" transform="translate(1998 4633)"/>
    <g id="branch" transform="translate(2016.856 4651.5)">
      <g id="Group_106" data-name="Group 106" transform="translate(11.557 2.063)">
        <path id="Path_130" data-name="Path 130" class="cls-2" d="M328.316,12.157a78.379,78.379,0,0,1,41.422,32.1,2.631,2.631,0,0,0,4.429-2.841A83.655,83.655,0,0,0,329.955,7.157a2.631,2.631,0,0,0-1.639,5Z" transform="translate(-233.394 -6.845)"/>
        <path id="Path_131" data-name="Path 131" class="cls-2" d="M36.141,44.672a2.63,2.63,0,0,0,3.635-.794A78.32,78.32,0,0,1,81.735,11.6a2.631,2.631,0,0,0-1.6-5.012,83.59,83.59,0,0,0-44.787,34.45A2.631,2.631,0,0,0,36.141,44.672Z" transform="translate(-34.93 -6.46)"/>
        <path id="Path_132" data-name="Path 132" class="cls-2" d="M39.776,384.6a2.631,2.631,0,0,0-4.43,2.841,83.4,83.4,0,0,0,35.42,30.817,2.631,2.631,0,1,0,2.2-4.781A78.143,78.143,0,0,1,39.776,384.6Z" transform="translate(-34.93 -263.023)"/>
        <path id="Path_133" data-name="Path 133" class="cls-2" d="M357.541,418.24a2.615,2.615,0,0,0,1.115-.25A83.445,83.445,0,0,0,393.5,387.442a2.631,2.631,0,0,0-4.43-2.84,78.192,78.192,0,0,1-32.649,28.625,2.631,2.631,0,0,0,1.119,5.013Z" transform="translate(-252.728 -263.024)"/>
      </g>
      <path id="Path_134" data-name="Path 134" class="cls-3" d="M53.293,298.431c0-.213-.006-.422-.013-.629,0-.029,0-.059,0-.089,0-.106-.013-.208-.02-.312-.008-.132-.015-.266-.026-.4,0-.054-.012-.107-.017-.161-.017-.178-.035-.355-.057-.528l-.007-.044a13.309,13.309,0,0,0-3.909-7.912l-.026-.025c-.1-.092-.19-.183-.286-.27-.047-.043-.1-.085-.143-.127s-.111-.1-.167-.147c-.093-.079-.185-.156-.278-.231l-.03-.025a11.182,11.182,0,0,0-3.248-1.872l-.012,0-.024-.008-.009,0L33.01,280.831l-3,3.113-3.068,2.988-3.068-2.988-3-3.114L8.867,285.646l-.009,0-.024.008-.012,0a11.173,11.173,0,0,0-3.248,1.872l-.03.025c-.093.075-.185.152-.278.232-.056.048-.111.1-.167.147s-.1.084-.143.127c-.1.088-.192.178-.286.27l-.026.025a13.311,13.311,0,0,0-3.909,7.912c0,.015,0,.029-.007.044-.022.173-.04.35-.057.528-.005.054-.013.107-.017.161-.011.13-.018.264-.026.4-.006.1-.015.206-.02.312,0,.029,0,.059,0,.089-.008.207-.013.416-.013.629v1.909h0v5.833a2.589,2.589,0,0,0,2.9,2.511H50.389a2.589,2.589,0,0,0,2.9-2.511V300.34h0Z" transform="translate(-0.001 -191.152)"/>
      <path id="Path_135" data-name="Path 135" class="cls-4" d="M20.815,281.256,8.869,285.934l-.037.013A13.218,13.218,0,0,0,.591,298.721v7.741a2.589,2.589,0,0,0,2.9,2.51H4.1V298.721a13.219,13.219,0,0,1,8.242-12.774l.037-.013,9.443-3.7Z" transform="translate(0 -191.441)"/>
      <path id="Path_136" data-name="Path 136" class="cls-5" d="M48.1,144.055H46.81a16.054,16.054,0,0,0-16.036,16.036v7.523s3.651-.362,4.1-2.133l0,0a2.008,2.008,0,0,0,.374-.572c2.071-.063,11.744-.138,17.269-6.81a10.907,10.907,0,0,0,7.181,6.731,2.037,2.037,0,0,0,.381.624l-.036.028c.449,1.77,4.1,2.133,4.1,2.133v-7.523A16.055,16.055,0,0,0,48.1,144.055Zm12.09,20.275.154-.111h.022l-.252.186Zm-.078.047.018-.054.053-.105h.022l-.064.132Zm-.425.329-.006-.008.4-.286-.094.09-.289.214Zm.326-.093-.124.256h0l-.018-.008-.008,0,.2-.4.005-.005Z" transform="translate(-20.544 -98.053)"/>
      <path id="Path_137" data-name="Path 137" class="cls-6" d="M33.6,164.231V160.09A16.054,16.054,0,0,1,48.87,144.074c-.254-.012-.509-.02-.766-.02H46.81A16.054,16.054,0,0,0,30.774,160.09v7.523a9.18,9.18,0,0,0,2.827-.788S33.6,164.231,33.6,164.231Z" transform="translate(-20.544 -98.052)"/>
      <path id="Path_138" data-name="Path 138" class="cls-7" d="M123.642,210.353a2.018,2.018,0,0,0-2.62,1.927v5.753a2.018,2.018,0,0,0,2.62,1.927,5.025,5.025,0,0,0,1.13-.517,10.05,10.05,0,0,1,1.141-.958,5.025,5.025,0,0,0-2.27-8.133Z" transform="translate(-81.973 -143.118)"/>
      <path id="Path_139" data-name="Path 139" class="cls-8" d="M31.249,210.653a2.02,2.02,0,0,0-1.8-.3,5.032,5.032,0,0,0,0,9.608,2.019,2.019,0,0,0,2.62-1.927v-5.754A2.018,2.018,0,0,0,31.249,210.653Z" transform="translate(-17.238 -143.117)"/>
      <path id="Path_140" data-name="Path 140" class="cls-7" d="M75.534,264.781a2.029,2.029,0,0,0-1.483-.559l-.069,0a2.092,2.092,0,0,0-.366.047,10.885,10.885,0,0,1-2.361.262H68.788a10.894,10.894,0,0,1-2.431-.278,2.019,2.019,0,0,0-2.47,1.968v5.893a2.022,2.022,0,0,0,.607,1.558l4.056,3.951a2.019,2.019,0,0,0,1.409.573h.033a2.017,2.017,0,0,0,1.422-.619l4.179-4.338a2.019,2.019,0,0,0,.565-1.4v-5.6A2.019,2.019,0,0,0,75.534,264.781Z" transform="translate(-43.08 -179.835)"/>
      <path id="Path_141" data-name="Path 141" class="cls-8" d="M70.367,277.026l-4.057-3.951a2.022,2.022,0,0,1-.608-1.558l0-.02v-5.873a2.017,2.017,0,0,1,.549-1.38,2.015,2.015,0,0,0-2.366,1.986v5.893a2.022,2.022,0,0,0,.607,1.558l4.056,3.951a2.02,2.02,0,0,0,1.409.573h.033a2.017,2.017,0,0,0,1.422-.619l.018-.019A2.015,2.015,0,0,1,70.367,277.026Z" transform="translate(-43.081 -179.84)"/>
      <path id="Path_142" data-name="Path 142" class="cls-7" d="M66.95,193.106a6.965,6.965,0,0,1-.7-.31,10.43,10.43,0,0,1-5.368-4.87,1.563,1.563,0,0,1-.1-.162.671.671,0,0,0-1.037-.274h0a28.658,28.658,0,0,1-9.506,4.678,29.6,29.6,0,0,1-3.164.744,24.452,24.452,0,0,1-3.168.4,2.02,2.02,0,0,0-1.874,2.015v8.238a11.9,11.9,0,0,0,11.884,11.883H56.38a11.9,11.9,0,0,0,11.883-11.883V195A2.018,2.018,0,0,0,66.95,193.106Z" transform="translate(-28.205 -127.518)"/>
      <path id="Path_143" data-name="Path 143" class="cls-8" d="M44.451,203.565v-8.238a2.02,2.02,0,0,1,1.874-2.015,24.474,24.474,0,0,0,3.168-.4,29.652,29.652,0,0,0,3.164-.744,29.311,29.311,0,0,0,8.4-3.881c-.067-.126-.127-.246-.179-.36a1.546,1.546,0,0,1-.1-.162.671.671,0,0,0-1.037-.274h0a28.662,28.662,0,0,1-9.506,4.678,29.679,29.679,0,0,1-3.164.744,24.551,24.551,0,0,1-3.168.4,2.02,2.02,0,0,0-1.874,2.014v8.238a11.9,11.9,0,0,0,11.884,11.884h2.422A11.9,11.9,0,0,1,44.451,203.565Z" transform="translate(-28.205 -127.519)"/>
      <path id="Path_144" data-name="Path 144" class="cls-3" d="M399.076,298.431c0-.213-.006-.422-.013-.629,0-.029,0-.059,0-.089,0-.106-.013-.208-.02-.312-.008-.132-.015-.266-.026-.4,0-.054-.012-.107-.017-.161-.017-.178-.035-.355-.057-.528,0-.015-.005-.029-.007-.044a13.309,13.309,0,0,0-3.909-7.912l-.025-.025q-.143-.138-.287-.27c-.047-.043-.1-.085-.143-.127s-.111-.1-.167-.147c-.092-.079-.185-.156-.278-.231l-.03-.025a11.185,11.185,0,0,0-3.248-1.872l-.012,0-.024-.008-.009,0-12.008-4.815-3,3.113-3.068,2.988-3.068-2.988-3-3.114-12.008,4.815-.009,0-.024.008-.012,0a11.173,11.173,0,0,0-3.248,1.872l-.03.025c-.093.075-.185.152-.278.232-.056.048-.111.1-.167.147s-.1.084-.143.127c-.1.088-.192.178-.286.27l-.026.025a13.31,13.31,0,0,0-3.909,7.912l-.007.044c-.022.173-.04.35-.057.528-.005.054-.013.107-.017.161-.011.13-.018.264-.026.4-.006.1-.015.206-.02.312,0,.029,0,.059,0,.089-.007.207-.013.416-.013.629v1.909h0v5.833a2.589,2.589,0,0,0,2.9,2.511h46.894a2.588,2.588,0,0,0,2.9-2.511V300.34h0v-1.909h0Z" transform="translate(-235.364 -191.152)"/>
      <path id="Path_145" data-name="Path 145" class="cls-4" d="M366.6,281.256l-11.946,4.678-.037.013a13.218,13.218,0,0,0-8.242,12.774v7.741a2.589,2.589,0,0,0,2.9,2.51h.6V298.721a13.219,13.219,0,0,1,8.242-12.774l.037-.013,9.443-3.7Z" transform="translate(-235.362 -191.441)"/>
      <path id="Path_146" data-name="Path 146" class="cls-5" d="M393.884,144.055H392.59a16.054,16.054,0,0,0-16.036,16.036v7.523s3.651-.362,4.1-2.133l0,0a2.008,2.008,0,0,0,.374-.572c2.071-.063,11.744-.138,17.268-6.81a10.907,10.907,0,0,0,7.181,6.731,2.034,2.034,0,0,0,.381.624l-.036.028c.449,1.77,4.1,2.133,4.1,2.133v-7.523A16.053,16.053,0,0,0,393.884,144.055Zm12.09,20.275.155-.111h.021l-.252.186Zm-.079.047.017-.054.054-.105h.022l-.064.132Zm-.426.329-.006-.008.4-.286-.094.09-.289.214Zm.326-.093-.124.256h0l-.018-.008-.008,0,.2-.4,0-.005Z" transform="translate(-255.905 -98.053)"/>
      <path id="Path_147" data-name="Path 147" class="cls-6" d="M379.381,164.231V160.09a16.054,16.054,0,0,1,15.269-16.016c-.254-.012-.509-.02-.766-.02H392.59a16.054,16.054,0,0,0-16.036,16.036v7.523a9.179,9.179,0,0,0,2.827-.788v-2.595Z" transform="translate(-255.905 -98.052)"/>
      <path id="Path_148" data-name="Path 148" class="cls-7" d="M469.425,210.353a2.019,2.019,0,0,0-2.62,1.927v5.753a2.018,2.018,0,0,0,2.62,1.927,5.016,5.016,0,0,0,1.13-.517,10.076,10.076,0,0,1,1.141-.958,5.025,5.025,0,0,0-2.27-8.133Z" transform="translate(-317.335 -143.118)"/>
      <path id="Path_149" data-name="Path 149" class="cls-8" d="M377.032,210.653a2.02,2.02,0,0,0-1.8-.3,5.032,5.032,0,0,0,0,9.608,2.019,2.019,0,0,0,2.62-1.927v-5.754A2.017,2.017,0,0,0,377.032,210.653Z" transform="translate(-252.6 -143.117)"/>
      <path id="Path_150" data-name="Path 150" class="cls-7" d="M421.317,264.781a2.029,2.029,0,0,0-1.482-.559l-.068,0a2.086,2.086,0,0,0-.366.047,10.886,10.886,0,0,1-2.361.262h-2.468a10.9,10.9,0,0,1-2.431-.278,2.019,2.019,0,0,0-2.471,1.968v5.893a2.024,2.024,0,0,0,.607,1.558l4.057,3.951a2.019,2.019,0,0,0,1.409.573h.033a2.017,2.017,0,0,0,1.422-.619l4.18-4.338a2.019,2.019,0,0,0,.565-1.4v-5.6A2.021,2.021,0,0,0,421.317,264.781Z" transform="translate(-278.443 -179.835)"/>
      <path id="Path_151" data-name="Path 151" class="cls-8" d="M416.15,277.026l-4.057-3.951a2.021,2.021,0,0,1-.607-1.558v-5.893a2.019,2.019,0,0,1,.548-1.38,2.015,2.015,0,0,0-2.366,1.986v5.893a2.024,2.024,0,0,0,.607,1.558l4.057,3.951a2.019,2.019,0,0,0,1.409.573h.033a2.017,2.017,0,0,0,1.422-.619l.018-.019A2.013,2.013,0,0,1,416.15,277.026Z" transform="translate(-278.443 -179.84)"/>
      <path id="Path_152" data-name="Path 152" class="cls-7" d="M412.733,193.106a6.939,6.939,0,0,1-.7-.31,10.427,10.427,0,0,1-5.368-4.87,1.56,1.56,0,0,1-.1-.162.671.671,0,0,0-1.037-.274h0a28.658,28.658,0,0,1-9.506,4.678,29.609,29.609,0,0,1-3.164.744,24.457,24.457,0,0,1-3.168.4,2.02,2.02,0,0,0-1.874,2.015v8.238a11.9,11.9,0,0,0,11.884,11.883h2.468a11.9,11.9,0,0,0,11.883-11.883V195A2.018,2.018,0,0,0,412.733,193.106Z" transform="translate(-263.567 -127.518)"/>
      <path id="Path_153" data-name="Path 153" class="cls-8" d="M390.233,203.565v-8.238a2.02,2.02,0,0,1,1.874-2.015,24.476,24.476,0,0,0,3.168-.4,29.614,29.614,0,0,0,3.164-.744,29.312,29.312,0,0,0,8.4-3.881c-.067-.126-.127-.246-.179-.36a1.506,1.506,0,0,1-.1-.162.671.671,0,0,0-1.037-.274h0a28.662,28.662,0,0,1-9.506,4.678,29.684,29.684,0,0,1-3.164.744,24.549,24.549,0,0,1-3.168.4,2.02,2.02,0,0,0-1.874,2.014v8.238a11.9,11.9,0,0,0,11.884,11.884h2.422A11.9,11.9,0,0,1,390.233,203.565Z" transform="translate(-263.566 -127.519)"/>
      <path id="Path_154" data-name="Path 154" class="cls-3" d="M226.184,154.377c0-.213-.006-.422-.013-.629,0-.029,0-.059,0-.088,0-.106-.014-.208-.02-.312-.008-.132-.015-.266-.026-.4,0-.054-.012-.107-.017-.161-.017-.178-.035-.355-.058-.528,0-.015,0-.029-.007-.044a13.311,13.311,0,0,0-3.909-7.912l-.026-.025q-.143-.138-.286-.27c-.047-.043-.1-.085-.143-.127s-.111-.1-.168-.147c-.092-.079-.185-.156-.278-.232l-.03-.025a11.177,11.177,0,0,0-3.248-1.872l-.012,0-.024-.008-.008,0L205.9,136.777l-3,3.114-3.068,2.988-3.068-2.988-3-3.114-12.008,4.815-.009,0-.024.008-.012,0a11.176,11.176,0,0,0-3.248,1.872l-.03.025c-.093.075-.185.152-.278.232-.056.048-.112.1-.167.147s-.1.084-.143.127c-.1.088-.192.178-.287.27l-.025.025a13.308,13.308,0,0,0-3.909,7.912c0,.015-.005.029-.007.044-.022.173-.04.35-.058.528-.005.054-.013.107-.017.161-.011.13-.018.264-.026.4-.006.1-.015.206-.02.312,0,.029,0,.059,0,.088-.007.208-.013.416-.013.629v1.908h0v5.833a2.589,2.589,0,0,0,2.9,2.511h46.895a2.589,2.589,0,0,0,2.9-2.511v-5.833h0v-1.908Z" transform="translate(-117.682 -93.099)"/>
      <path id="Path_155" data-name="Path 155" class="cls-4" d="M193.707,137.2l-11.946,4.678-.037.013a13.218,13.218,0,0,0-8.242,12.774v7.741a2.589,2.589,0,0,0,2.9,2.51h.605V154.667a13.218,13.218,0,0,1,8.242-12.774l.037-.013,9.443-3.7Z" transform="translate(-117.681 -93.389)"/>
      <path id="Path_156" data-name="Path 156" class="cls-5" d="M220.995,0H219.7a16.054,16.054,0,0,0-16.036,16.036v7.523s3.651-.362,4.1-2.133l0,0a2,2,0,0,0,.374-.572c2.071-.063,11.745-.138,17.269-6.81a10.907,10.907,0,0,0,7.181,6.731,2.035,2.035,0,0,0,.381.624l-.036.028c.449,1.77,4.1,2.133,4.1,2.133V16.036A16.055,16.055,0,0,0,220.995,0Zm12.09,20.275.154-.111h.021l-.251.186Zm-.079.048.018-.054.053-.105h.022l-.064.132Zm-.425.329-.006-.008.4-.286-.094.09-.289.214Zm.326-.093-.124.256h0l-.018-.008-.008,0,.2-.4.005-.005Z" transform="translate(-138.225)"/>
      <path id="Path_157" data-name="Path 157" class="cls-6" d="M206.492,20.177V16.036A16.054,16.054,0,0,1,221.761.02c-.255-.012-.51-.02-.767-.02H219.7a16.054,16.054,0,0,0-16.036,16.036v7.523a9.175,9.175,0,0,0,2.827-.788Z" transform="translate(-138.225 0)"/>
      <path id="Path_158" data-name="Path 158" class="cls-7" d="M296.534,66.3a2.018,2.018,0,0,0-2.62,1.927v5.753a2.018,2.018,0,0,0,2.62,1.928,5.015,5.015,0,0,0,1.13-.517,10.1,10.1,0,0,1,1.141-.958,5.025,5.025,0,0,0-2.27-8.133Z" transform="translate(-199.655 -45.064)"/>
      <path id="Path_159" data-name="Path 159" class="cls-8" d="M204.141,66.6a2.02,2.02,0,0,0-1.8-.3,5.032,5.032,0,0,0,0,9.608,2.019,2.019,0,0,0,2.62-1.927V68.224A2.018,2.018,0,0,0,204.141,66.6Z" transform="translate(-134.919 -45.064)"/>
      <path id="Path_160" data-name="Path 160" class="cls-7" d="M248.425,120.727a2.029,2.029,0,0,0-1.483-.559l-.069,0a2.068,2.068,0,0,0-.366.047,10.88,10.88,0,0,1-2.36.262h-2.468a10.9,10.9,0,0,1-2.431-.277,2.018,2.018,0,0,0-2.47,1.968v5.893a2.023,2.023,0,0,0,.607,1.558l4.056,3.952a2.02,2.02,0,0,0,1.409.573h.032a2.017,2.017,0,0,0,1.422-.619l4.18-4.338a2.019,2.019,0,0,0,.565-1.4v-5.6A2.017,2.017,0,0,0,248.425,120.727Z" transform="translate(-160.761 -81.782)"/>
      <path id="Path_161" data-name="Path 161" class="cls-8" d="M243.258,132.969l-4.057-3.951a2.021,2.021,0,0,1-.607-1.558l0-.02v-5.873a2.018,2.018,0,0,1,.549-1.38,2.014,2.014,0,0,0-2.366,1.986v5.893a2.023,2.023,0,0,0,.607,1.558l4.056,3.951a2.02,2.02,0,0,0,1.409.573h.033a2.017,2.017,0,0,0,1.422-.619l.018-.019A2.005,2.005,0,0,1,243.258,132.969Z" transform="translate(-160.762 -81.786)"/>
      <path id="Path_162" data-name="Path 162" class="cls-7" d="M239.842,49.051a6.991,6.991,0,0,1-.7-.31,10.432,10.432,0,0,1-5.368-4.87,1.559,1.559,0,0,1-.1-.162.671.671,0,0,0-1.037-.274h0a28.665,28.665,0,0,1-9.506,4.678,29.628,29.628,0,0,1-3.164.744,24.474,24.474,0,0,1-3.168.4,2.02,2.02,0,0,0-1.874,2.014v8.238A11.9,11.9,0,0,0,226.8,71.393h2.468a11.9,11.9,0,0,0,11.883-11.883V50.942A2.018,2.018,0,0,0,239.842,49.051Z" transform="translate(-145.886 -29.465)"/>
      <path id="Path_163" data-name="Path 163" class="cls-8" d="M217.343,59.509V51.27a2.02,2.02,0,0,1,1.874-2.014,24.49,24.49,0,0,0,3.169-.4,29.637,29.637,0,0,0,3.163-.744,29.307,29.307,0,0,0,8.4-3.881c-.067-.126-.127-.246-.179-.36a1.565,1.565,0,0,1-.1-.162.671.671,0,0,0-1.037-.274h0a28.666,28.666,0,0,1-9.506,4.678,29.619,29.619,0,0,1-3.164.744,24.465,24.465,0,0,1-3.168.4,2.02,2.02,0,0,0-1.874,2.014v8.238A11.9,11.9,0,0,0,226.8,71.393h2.422A11.9,11.9,0,0,1,217.343,59.509Z" transform="translate(-145.885 -29.465)"/>
      <path id="Path_164" data-name="Path 164" class="cls-3" d="M226.184,442.38c0-.213-.006-.422-.013-.629,0-.029,0-.059,0-.089,0-.106-.014-.207-.02-.312-.008-.132-.015-.266-.026-.4,0-.054-.012-.107-.017-.161-.017-.178-.035-.355-.058-.528,0-.015,0-.029-.007-.044a13.31,13.31,0,0,0-3.909-7.912l-.026-.025c-.1-.092-.19-.183-.286-.27-.047-.043-.1-.085-.143-.128s-.111-.1-.168-.147c-.092-.08-.185-.157-.278-.232l-.03-.025a11.184,11.184,0,0,0-3.248-1.872l-.012,0-.024-.008-.008,0L205.9,424.779l-3,3.114-3.068,2.988-3.068-2.988-3-3.114-12.008,4.815-.009,0-.024.008-.012,0a11.181,11.181,0,0,0-3.248,1.872l-.03.025q-.139.113-.278.231c-.056.048-.112.1-.167.147s-.1.084-.143.127q-.144.132-.287.27l-.025.025a13.309,13.309,0,0,0-3.909,7.912c0,.015-.005.029-.007.044-.022.173-.04.35-.058.528-.005.054-.013.107-.017.161-.011.13-.018.264-.026.4-.006.1-.015.206-.02.312,0,.029,0,.059,0,.089-.007.207-.013.416-.013.629v1.908h0v5.833a2.589,2.589,0,0,0,2.9,2.511h46.895a2.589,2.589,0,0,0,2.9-2.511v-5.833h0V442.38Z" transform="translate(-117.682 -289.132)"/>
      <path id="Path_165" data-name="Path 165" class="cls-4" d="M193.707,425.2l-11.946,4.678-.037.013a13.218,13.218,0,0,0-8.242,12.773v7.741a2.589,2.589,0,0,0,2.9,2.51h.605V442.669a13.219,13.219,0,0,1,8.242-12.774l.037-.013,9.443-3.7Z" transform="translate(-117.681 -289.421)"/>
      <path id="Path_166" data-name="Path 166" class="cls-5" d="M220.995,288H219.7a16.054,16.054,0,0,0-16.036,16.036v7.523s3.651-.362,4.1-2.133l0,0a2,2,0,0,0,.374-.572c2.071-.063,11.745-.138,17.269-6.81a10.907,10.907,0,0,0,7.181,6.731,2.035,2.035,0,0,0,.381.624l-.036.028c.449,1.77,4.1,2.133,4.1,2.133V304.04A16.054,16.054,0,0,0,220.995,288Zm12.09,20.275.154-.112h.021l-.251.186Zm-.079.048.018-.054.053-.105h.022l-.064.132Zm-.425.329-.006-.008.4-.286-.094.09-.289.214Zm.326-.093-.124.256h0l-.018-.008-.008,0,.2-.4.005-.005Z" transform="translate(-138.225 -196.034)"/>
      <path id="Path_167" data-name="Path 167" class="cls-6" d="M206.493,308.18v-4.14a16.054,16.054,0,0,1,15.269-16.016c-.254-.012-.509-.02-.766-.02H219.7a16.054,16.054,0,0,0-16.036,16.036v7.523a9.171,9.171,0,0,0,2.827-.788V308.18Z" transform="translate(-138.226 -196.034)"/>
      <path id="Path_168" data-name="Path 168" class="cls-7" d="M296.534,354.3a2.018,2.018,0,0,0-2.62,1.927v5.753a2.018,2.018,0,0,0,2.62,1.927,5.013,5.013,0,0,0,1.13-.517,10.055,10.055,0,0,1,1.141-.958,5.026,5.026,0,0,0-2.27-8.133Z" transform="translate(-199.655 -241.099)"/>
      <path id="Path_169" data-name="Path 169" class="cls-8" d="M204.141,354.6a2.02,2.02,0,0,0-1.8-.3,5.032,5.032,0,0,0,0,9.608,2.019,2.019,0,0,0,2.62-1.927v-5.754A2.018,2.018,0,0,0,204.141,354.6Z" transform="translate(-134.919 -241.099)"/>
      <path id="Path_170" data-name="Path 170" class="cls-7" d="M248.425,408.73a2.028,2.028,0,0,0-1.483-.559l-.069,0a2.079,2.079,0,0,0-.366.047,10.89,10.89,0,0,1-2.36.262h-2.468a10.889,10.889,0,0,1-2.431-.277,2.018,2.018,0,0,0-2.47,1.968v5.893a2.022,2.022,0,0,0,.607,1.558l4.056,3.952a2.021,2.021,0,0,0,1.409.572h.032a2.017,2.017,0,0,0,1.422-.619l4.18-4.338a2.019,2.019,0,0,0,.565-1.4v-5.6A2.017,2.017,0,0,0,248.425,408.73Z" transform="translate(-160.761 -277.816)"/>
      <path id="Path_171" data-name="Path 171" class="cls-8" d="M243.258,420.973l-4.057-3.951a2.02,2.02,0,0,1-.607-1.558l0-.02V409.57a2.017,2.017,0,0,1,.549-1.38,2.014,2.014,0,0,0-2.366,1.986v5.893a2.022,2.022,0,0,0,.607,1.558l4.056,3.952a2.02,2.02,0,0,0,1.409.572h.033a2.017,2.017,0,0,0,1.422-.619l.018-.018A2.009,2.009,0,0,1,243.258,420.973Z" transform="translate(-160.762 -277.82)"/>
      <path id="Path_172" data-name="Path 172" class="cls-7" d="M239.842,337.055a6.93,6.93,0,0,1-.7-.31,10.432,10.432,0,0,1-5.368-4.87,1.553,1.553,0,0,1-.1-.162.671.671,0,0,0-1.037-.274h0a28.67,28.67,0,0,1-9.506,4.678,29.678,29.678,0,0,1-3.164.744,24.487,24.487,0,0,1-3.168.4,2.02,2.02,0,0,0-1.874,2.014v8.238A11.9,11.9,0,0,0,226.8,359.4h2.468a11.9,11.9,0,0,0,11.883-11.883v-8.566A2.017,2.017,0,0,0,239.842,337.055Z" transform="translate(-145.886 -225.499)"/>
      <path id="Path_173" data-name="Path 173" class="cls-8" d="M217.343,347.512v-8.238a2.02,2.02,0,0,1,1.874-2.015,24.465,24.465,0,0,0,3.169-.4,31.094,31.094,0,0,0,11.567-4.625c-.067-.126-.127-.246-.179-.36a1.538,1.538,0,0,1-.1-.162.671.671,0,0,0-1.037-.274h0a28.662,28.662,0,0,1-9.506,4.678,29.591,29.591,0,0,1-3.164.744,24.5,24.5,0,0,1-3.168.4,2.019,2.019,0,0,0-1.874,2.014v8.238A11.9,11.9,0,0,0,226.8,359.4h2.422A11.9,11.9,0,0,1,217.343,347.512Z" transform="translate(-145.885 -225.498)"/>
    </g>
  </g>
</svg>
