<?xml version="1.0" encoding="iso-8859-1"?>
<!-- Generator: Adobe Illustrator 19.0.0, SVG Export Plug-In . SVG Version: 6.00 Build 0)  -->
<svg version="1.1" id="Layer_1" xmlns="http://www.w3.org/2000/svg" xmlns:xlink="http://www.w3.org/1999/xlink" x="0px" y="0px"
	 viewBox="0 0 512 512" style="enable-background:new 0 0 512 512;" xml:space="preserve">
<circle style="fill:#B5F1F4;" cx="256" cy="256" r="256"/>
<path style="fill:#84DBFF;" d="M512,256c0-4.532-0.122-9.037-0.355-13.512L406.111,136.954L206.203,272.46l-98.619,71.673
	l167.179,167.179C407.386,501.703,512,391.073,512,256z"/>
<rect x="210.23" y="326.163" style="fill:#2B3B4E;" width="91.539" height="61.026"/>
<rect x="255.431" y="326.163" style="fill:#212F3D;" width="46.344" height="61.026"/>
<path style="fill:#324A5E;" d="M397.624,346.505H114.376c-6.042,0-10.942-4.899-10.942-10.942V143.855
	c0-6.042,4.899-10.942,10.942-10.942h283.248c6.042,0,10.942,4.899,10.942,10.942v191.709
	C408.566,341.606,403.666,346.505,397.624,346.505z"/>
<path style="fill:#2B3B4E;" d="M397.624,132.913H255.426v213.592h142.198c6.042,0,10.942-4.899,10.942-10.942V143.855
	C408.566,137.811,403.666,132.913,397.624,132.913z"/>
<rect x="116.381" y="145.394" style="fill:#FFFFFF;" width="279.238" height="188.63"/>
<rect x="255.431" y="145.394" style="fill:#E6F3FF;" width="140.188" height="188.63"/>
<rect x="194.974" y="377.018" style="fill:#324A5E;" width="122.053" height="30.513"/>
<rect x="255.431" y="377.018" style="fill:#2B3B4E;" width="61.6" height="30.513"/>
<rect x="194.974" y="377.018" style="fill:#324A5E;" width="60.457" height="30.513"/>
<circle style="fill:#FFD15D;" cx="298.701" cy="210.851" r="31.863"/>
<g>
	<path style="fill:#F9B54C;" d="M298.699,178.981c-0.06,0-0.117,0.009-0.176,0.009v63.707c0.06,0,0.117,0.009,0.176,0.009
		c17.598,0,31.863-14.265,31.863-31.863C330.562,193.246,316.297,178.981,298.699,178.981z"/>
	<path style="fill:#F9B54C;" d="M240.949,305.436c0-31.896,25.855-57.751,57.751-57.751s57.751,25.855,57.751,57.751H240.949z"/>
</g>
<path style="fill:#F4A200;" d="M298.699,247.686c-0.059,0-0.117,0.003-0.176,0.003v57.747h57.927
	C356.45,273.541,330.595,247.686,298.699,247.686z"/>
<g>
	<path style="fill:#31BAFD;" d="M195.451,220.141c5.941,0,10.755-4.815,10.755-10.754v-16.858c0-5.939-4.815-10.754-10.754-10.754
		H159.41c-5.941,0-10.755,4.815-10.755,10.754v16.858c0,5.939,4.815,10.754,10.754,10.754h12.209l-0.003,82.692h11.628v-5.958
		h18.603c2.408,0,4.36-1.951,4.36-4.36v-0.872c0-2.408-1.951-4.36-4.36-4.36h-18.603v-9.592h18.603c2.408,0,4.36-1.951,4.36-4.36
		v-0.872c0-2.408-1.951-4.36-4.36-4.36h-18.603l0.002-47.959L195.451,220.141z M168.129,211.713
		c-5.941,0-10.755-4.815-10.754-10.754c0-5.939,4.815-10.754,10.755-10.754h18.603c5.941,0,10.755,4.815,10.754,10.754
		c0,5.939-4.815,10.754-10.755,10.754H168.129z"/>
	<path style="fill:#31BAFD;" d="M195.451,220.141c5.939,0,10.755-4.815,10.755-10.754v-16.858c0-5.939-4.815-10.755-10.754-10.755
		h-19.327v8.428h10.605c5.939,0,10.754,4.815,10.754,10.755c0,5.939-4.815,10.754-10.755,10.754h-10.605v91.12h7.113v-5.958h18.603
		c2.408,0,4.36-1.951,4.36-4.36v-0.872c0-2.408-1.951-4.36-4.36-4.36h-18.603v-9.592h18.603c2.408,0,4.36-1.951,4.36-4.36v-0.872
		c0-2.408-1.951-4.36-4.36-4.36h-18.603l0.002-47.959h12.212V220.141z"/>
</g>
<g>
</g>
<g>
</g>
<g>
</g>
<g>
</g>
<g>
</g>
<g>
</g>
<g>
</g>
<g>
</g>
<g>
</g>
<g>
</g>
<g>
</g>
<g>
</g>
<g>
</g>
<g>
</g>
<g>
</g>
</svg>
