<svg height="512pt" viewBox="0 0 512 512" width="512pt" xmlns="http://www.w3.org/2000/svg"><path d="m503.464844 256c0 136.671875-110.792969 247.464844-247.464844 247.464844s-247.464844-110.792969-247.464844-247.464844 110.792969-247.464844 247.464844-247.464844 247.464844 110.792969 247.464844 247.464844zm0 0" fill="#61b872"/><path d="m341.332031 281.601562h-170.664062c-14.140625 0-25.601563-11.460937-25.601563-25.601562s11.460938-25.601562 25.601563-25.601562h170.664062c14.140625 0 25.601563 11.460937 25.601563 25.601562s-11.460938 25.601562-25.601563 25.601562zm0 0" fill="#fff"/><path d="m341.332031 179.199219h-170.664062c-14.140625 0-25.601563-11.460938-25.601563-25.597657 0-14.140624 11.460938-25.601562 25.601563-25.601562h170.664062c14.140625 0 25.601563 11.460938 25.601563 25.601562 0 14.136719-11.460938 25.597657-25.601563 25.597657zm0 0" fill="#fff"/><path d="m341.332031 384h-170.664062c-14.140625 0-25.601563-11.460938-25.601563-25.601562 0-14.136719 11.460938-25.597657 25.601563-25.597657h170.664062c14.140625 0 25.601563 11.460938 25.601563 25.597657 0 14.140624-11.460938 25.601562-25.601563 25.601562zm0 0" fill="#fff"/><g fill="#4d007e"><path d="m256 512c-141.160156 0-256-114.839844-256-256s114.839844-256 256-256 256 114.839844 256 256-114.839844 256-256 256zm0-494.933594c-131.746094 0-238.933594 107.1875-238.933594 238.933594s107.1875 238.933594 238.933594 238.933594 238.933594-107.1875 238.933594-238.933594-107.1875-238.933594-238.933594-238.933594zm0 0"/><path d="m341.332031 290.132812h-170.664062c-18.824219 0-34.132813-15.308593-34.132813-34.132812s15.308594-34.132812 34.132813-34.132812h170.664062c18.824219 0 34.132813 15.308593 34.132813 34.132812s-15.308594 34.132812-34.132813 34.132812zm-170.664062-51.199218c-9.414063 0-17.066407 7.652344-17.066407 17.066406s7.652344 17.066406 17.066407 17.066406h170.664062c9.414063 0 17.066407-7.652344 17.066407-17.066406s-7.652344-17.066406-17.066407-17.066406zm0 0"/><path d="m341.332031 187.734375h-170.664062c-18.824219 0-34.132813-15.308594-34.132813-34.132813 0-18.824218 15.308594-34.136718 34.132813-34.136718h170.664062c18.824219 0 34.132813 15.3125 34.132813 34.136718 0 18.824219-15.308594 34.132813-34.132813 34.132813zm-170.664062-51.199219c-9.414063 0-17.066407 7.652344-17.066407 17.066406 0 9.410157 7.652344 17.066407 17.066407 17.066407h170.664062c9.414063 0 17.066407-7.65625 17.066407-17.066407 0-9.414062-7.652344-17.066406-17.066407-17.066406zm0 0"/><path d="m341.332031 392.535156h-170.664062c-18.824219 0-34.132813-15.3125-34.132813-34.136718 0-18.824219 15.308594-34.132813 34.132813-34.132813h170.664062c18.824219 0 34.132813 15.308594 34.132813 34.132813 0 18.824218-15.308594 34.136718-34.132813 34.136718zm-170.664062-51.203125c-9.414063 0-17.066407 7.65625-17.066407 17.066407 0 9.414062 7.652344 17.066406 17.066407 17.066406h170.664062c9.414063 0 17.066407-7.652344 17.066407-17.066406 0-9.410157-7.652344-17.066407-17.066407-17.066407zm0 0"/></g></svg>