<svg height="512pt" viewBox="0 0 512 512" width="512pt" xmlns="http://www.w3.org/2000/svg"><path d="m512 256c0 141.386719-114.613281 256-256 256s-256-114.613281-256-256 114.613281-256 256-256 256 114.613281 256 256zm0 0" fill="#ffd460"/><path d="m502.3125 326-192.332031-192.328125-53.980469-22.671875-55.332031 61-39.234375 229 110.492187 110.492188c110.0625-6.757813 201.328125-83.039063 230.386719-185.492188zm0 0" fill="#ffbe11"/><path d="m180.347656 186.652344v75.652344h37.828125v-75.652344c0-20.855469 16.96875-37.828125 37.824219-37.828125l12.609375-18.910157-12.609375-18.914062c-41.78125 0-75.652344 33.871094-75.652344 75.652344zm0 0" fill="#446080"/><path d="m256 111v37.824219c20.855469 0 37.824219 16.972656 37.824219 37.828125v75.652344h37.828125s0-33.871094 0-75.652344-33.871094-75.652344-75.652344-75.652344zm0 0" fill="#324860"/><path d="m161.433594 249.695312v151.304688h94.566406l12.609375-75.652344-12.609375-75.652344zm0 0" fill="#6790bf"/><path d="m256 249.695312h94.566406v151.304688h-94.566406zm0 0" fill="#446080"/><path d="m274.914062 315.890625c0-10.445313-8.46875-18.914063-18.914062-18.914063s-18.914062 8.46875-18.914062 18.914063c0 7 3.804687 13.105469 9.457031 16.378906v27.753907h18.914062v-27.753907c5.652344-3.273437 9.457031-9.378906 9.457031-16.378906zm0 0" fill="#263648"/></svg>