<?xml version="1.0" encoding="iso-8859-1"?>
<!-- Generator: Adobe Illustrator 19.0.0, SVG Export Plug-In . SVG Version: 6.00 Build 0)  -->
<svg version="1.1" id="Capa_1" xmlns="http://www.w3.org/2000/svg" xmlns:xlink="http://www.w3.org/1999/xlink" x="0px" y="0px"
	 viewBox="0 0 409.6 409.6" style="enable-background:new 0 0 409.6 409.6;" xml:space="preserve">
<circle style="fill:#334D5C;" cx="204.8" cy="204.8" r="204.8"/>
<path style="opacity:0.1;enable-background:new    ;" d="M409.6,204.8c0-4.637-0.21-9.223-0.513-13.783l-89.471-89.47
	c-1.049-1.173-2.16-2.284-3.333-3.333l-0.001-0.001c-7.445-6.658-17.241-10.739-28.004-10.739
	c-23.253,0-42.112,18.816-42.112,42.069c0,4.204,8.483,14.011,9.644,17.832l-46,27.023l-20.139-20.14
	c-0.722-0.768-1.477-1.504-2.236-2.235l-0.384-0.384l-0.001,0.01c-11.446-10.855-26.877-17.54-43.882-17.54
	c-35.328,0-63.915,28.629-63.915,63.915c0,16.111,6.006,30.784,15.846,42.019l-0.045,0.016l0.66,0.66
	c1.485,1.648,3.052,3.214,4.699,4.699l157.256,157.256C345.147,379.358,409.6,299.621,409.6,204.8z"/>
<g>
	
		<rect x="163.901" y="157.597" transform="matrix(0.8562 -0.5166 0.5166 0.8562 -51.9829 141.9461)" style="fill:#DC8744;" width="130.237" height="13.53"/>
	
		<rect x="222.241" y="183.129" transform="matrix(0.5165 -0.8563 0.8563 0.5165 -101.8482 316.1256)" style="fill:#DC8744;" width="13.53" height="130.241"/>
</g>
<circle style="fill:#D15241;" cx="143.15" cy="198.02" r="63.902"/>
<circle style="fill:#FCD462;" cx="288.26" cy="129.54" r="42.08"/>
<circle style="fill:#3EA69B;" cx="284.76" cy="280.06" r="42.08"/>
<path style="fill:#E56353;" d="M143.152,261.91c35.292,0,63.901-28.61,63.901-63.901s-28.61-63.901-63.901-63.901V261.91z"/>
<path style="fill:#F6C358;" d="M288.267,171.63c23.241,0,42.082-18.841,42.082-42.082s-18.841-42.082-42.082-42.082V171.63z"/>
<path style="fill:#31978C;" d="M284.773,322.133c23.241,0,42.082-18.841,42.082-42.082s-18.841-42.082-42.082-42.082V322.133z"/>
<circle style="fill:#3A556A;" cx="143.15" cy="171.35" r="18.974"/>
<path style="fill:#2F4859;" d="M103.363,230.12c0-21.975,17.814-39.79,39.79-39.79s39.79,17.814,39.79,39.79"/>
<circle style="fill:#3A556A;" cx="288.26" cy="113.47" r="10.948"/>
<path style="fill:#2F4859;" d="M265.308,147.374c0-12.68,10.279-22.959,22.959-22.959s22.959,10.279,22.959,22.959"/>
<circle style="fill:#3A556A;" cx="284.76" cy="263.97" r="10.948"/>
<path style="fill:#2F4859;" d="M261.814,297.873c0-12.68,10.279-22.959,22.959-22.959s22.959,10.279,22.959,22.959"/>
<g>
</g>
<g>
</g>
<g>
</g>
<g>
</g>
<g>
</g>
<g>
</g>
<g>
</g>
<g>
</g>
<g>
</g>
<g>
</g>
<g>
</g>
<g>
</g>
<g>
</g>
<g>
</g>
<g>
</g>
</svg>
